PathFileType	4	(X/Y/Z)	Sub_1_bilateral_squat02_.centers_.trc
DataRate	CameraRate	NumFrames	NumMarkers	Units	OrigDataRate	OrigDataStartFrame	OrigNumFrames
60.0	60.0	4	120	mm	100.0	45	597
Frame#	Time		Back_Left_Head		Back_Right_Head		C7		CenterHead		COP_Projection		COP_Projection_GroundY		F_LHIP		F_RHIP		Front_Left_Head		Front_Right_Head		Girdle_Center		Head		JC.L.Elbow		JC.L.Hand		JC.L.Wrist		JC.R.Elbow		JC.R.Hand		JC.R.Wrist		JC_L.Hip		JC_R.Hip		L.Ankle.Center		L.Ankle.Lateral		L.Elbow		L.Hand		L.Heel		L.Hip		L.Iliac.Crest		L.Knee.Center		L.Knee.Lateral		L.PSIS		L.Shank.Front		L.Shank.Rear		L.Shank.Upper		L.Shoulder		L.Thigh.Front		L.Thigh.Rear		L.Thigh.Upper		L.Toe		L.Wrist.Radial		L.Wrist.Ulnar		LAB_Origin		LAB_X		LAB_Y		LAB_Z		LDFA midpoint		LEFT_FOOT_BORDER1		LEFT_FOOT_BORDER2		LEFT_FOOT_BORDER3		LForearmX		LForearmY		LForearmZ		LHandX		LHandY		LHandZ		LHIP		LLowerArmX		LLowerArmY		LLowerArmZ		LMID_MALLEOLI_V		LPFA midpoint		mid_ASIS		Mid_ASIS_Projection		Mid_ASIS_Projection_Lateral		Mid_ASIS_Projection_LateralZ		North_Virtual_Origin		Offset		Pelvis.Center		Pelvis_Center		PelvisX		PelvisY		PelvisZ		R.Ankle.Center		R.Ankle.Lateral		R.Elbow		R.Hand		R.Heel		R.Hip		R.Iliac.Crest		R.Knee.Center		R.Knee.Lateral		R.Shank.Front		R.Shank.Rear		R.Shank.Upper		R.Shoulder		R.Thigh.Front		R.Thigh.Rear		R.Thigh.Upper		R.Toe		R.Wrist.Radial		R.Wrist.Ulnar		RDFA midpoint		RForearmX		RForearmY		RForearmZ		RHandX		RHandY		RHandZ		RHIP		RIGHT_FOOT_BORDER1		RIGHT_FOOT_BORDER2		RIGHT_FOOT_BORDER3		RLowerArmX		RLowerArmY		RLowerArmZ		RMID_MALLEOLI_V		RPFA midpoint		V.Sacral		v3d_lab_lat_distal		v3d_lab_lat_prox		v3d_lab_med_distal		v3d_lab_med_prox		V_L.Hip.skin		V_R.Hip.skin		V_V.Sacral.skin		Virtual_Lab_Origin		X.Shell.Lower.Shank.Left		X.Shell.Lower.Shank.Right		X.Shell.Lower.Thigh.Left		X.Shell.Lower.Thigh.Right		Z_Virtual_Lab_Origin
			X1	Y1	Z1	X2	Y2	Z2	X3	Y3	Z3	X4	Y4	Z4	X5	Y5	Z5	X6	Y6	Z6	X7	Y7	Z7	X8	Y8	Z8	X9	Y9	Z9	X10	Y10	Z10	X11	Y11	Z11	X12	Y12	Z12	X13	Y13	Z13	X14	Y14	Z14	X15	Y15	Z15	X16	Y16	Z16	X17	Y17	Z17	X18	Y18	Z18	X19	Y19	Z19	X20	Y20	Z20	X21	Y21	Z21	X22	Y22	Z22	X23	Y23	Z23	X24	Y24	Z24	X25	Y25	Z25	X26	Y26	Z26	X27	Y27	Z27	X28	Y28	Z28	X29	Y29	Z29	X30	Y30	Z30	X31	Y31	Z31	X32	Y32	Z32	X33	Y33	Z33	X34	Y34	Z34	X35	Y35	Z35	X36	Y36	Z36	X37	Y37	Z37	X38	Y38	Z38	X39	Y39	Z39	X40	Y40	Z40	X41	Y41	Z41	X42	Y42	Z42	X43	Y43	Z43	X44	Y44	Z44	X45	Y45	Z45	X46	Y46	Z46	X47	Y47	Z47	X48	Y48	Z48	X49	Y49	Z49	X50	Y50	Z50	X51	Y51	Z51	X52	Y52	Z52	X53	Y53	Z53	X54	Y54	Z54	X55	Y55	Z55	X56	Y56	Z56	X57	Y57	Z57	X58	Y58	Z58	X59	Y59	Z59	X60	Y60	Z60	X61	Y61	Z61	X62	Y62	Z62	X63	Y63	Z63	X64	Y64	Z64	X65	Y65	Z65	X66	Y66	Z66	X67	Y67	Z67	X68	Y68	Z68	X69	Y69	Z69	X70	Y70	Z70	X71	Y71	Z71	X72	Y72	Z72	X73	Y73	Z73	X74	Y74	Z74	X75	Y75	Z75	X76	Y76	Z76	X77	Y77	Z77	X78	Y78	Z78	X79	Y79	Z79	X80	Y80	Z80	X81	Y81	Z81	X82	Y82	Z82	X83	Y83	Z83	X84	Y84	Z84	X85	Y85	Z85	X86	Y86	Z86	X87	Y87	Z87	X88	Y88	Z88	X89	Y89	Z89	X90	Y90	Z90	X91	Y91	Z91	X92	Y92	Z92	X93	Y93	Z93	X94	Y94	Z94	X95	Y95	Z95	X96	Y96	Z96	X97	Y97	Z97	X98	Y98	Z98	X99	Y99	Z99	X100	Y100	Z100	X101	Y101	Z101	X102	Y102	Z102	X103	Y103	Z103	X104	Y104	Z104	X105	Y105	Z105	X106	Y106	Z106	X107	Y107	Z107	X108	Y108	Z108	X109	Y109	Z109	X110	Y110	Z110	X111	Y111	Z111	X112	Y112	Z112	X113	Y113	Z113	X114	Y114	Z114	X115	Y115	Z115	X116	Y116	Z116	X117	Y117	Z117	X118	Y118	Z118	X119	Y119	Z119	X120	Y120	Z120

45	0.73333	-134.82902	1512.47824	-66.13969	13.52598	1519.61645	-76.67327	-65.61061	1381.76453	-56.12209	-60.25170	1543.38241	-133.80860	-66.10961	0.00000	-182.43914	-66.10961	0.00000	-282.43912	-128.93385	875.84684	-215.34431	4.72623	875.94457	-214.68495	-134.02938	1567.14848	-190.94394	-6.19637	1571.26922	-198.30872	-66.15490	1400.15931	-109.50592	-60.69468	1633.98261	-91.91028	-210.88225	1348.91754	-419.05375	-183.01602	1467.03608	-684.44068	-188.29074	1421.09583	-625.76632	78.12618	1342.24399	-421.16403	48.02087	1421.68004	-695.55375	47.72721	1434.72601	-622.93614	-120.36379	875.55655	-216.59850	-3.32369	875.59978	-216.61443	-185.60828	76.60167	-142.05927	-219.33091	72.36614	-129.19762	-210.88225	1348.91754	-419.05375	-184.32844	1440.44715	-692.25728	-185.19004	46.47064	-77.13031	-166.37478	939.35955	-270.86231	-214.15414	959.31667	-216.75974	-164.08081	461.13243	-145.64093	-223.71742	469.51916	-149.23790	-115.95131	969.73281	-94.78367	-239.84004	221.78598	-145.57612	-241.45461	222.51655	-96.26263	-248.05937	263.35754	-115.96104	-187.86103	1406.31877	-109.44608	-246.22948	609.37241	-188.14919	-240.09093	620.60102	-130.82661	-241.64530	648.50436	-167.05419	-210.74962	39.84614	-288.82941	-158.32771	1420.45852	-628.62933	-218.25376	1421.73325	-622.90335	0.00000	0.00000	-0.00000	999.99994	0.00000	-0.00000	0.00000	0.00000	-999.99994	0.00000	999.99994	-0.00000	-188.29074	1421.09583	-625.76632	-210.32069	40.82466	-288.83927	-221.10882	73.88927	-130.33363	-183.33953	47.93784	-75.98661	-138.62268	1416.94092	-621.78896	-185.69301	1468.14810	-609.05308	-193.42250	1404.70016	-578.81054	-133.14752	1464.21428	-682.16708	-182.19787	1506.36347	-653.57503	-186.54633	1436.28877	-645.17064	-210.60711	863.31908	-299.63203	-168.35031	1419.85706	-625.37816	-215.65590	1468.78552	-606.19005	-216.55204	1404.92358	-575.84447	-186.12762	78.65938	-141.70842	-199.58648	1385.00667	-522.41007	-61.87469	939.39809	-270.87654	-61.87469	0.00000	-270.87654	-66.10961	0.00000	-270.87654	-66.10961	100.00000	-270.87654	0.00000	0.00000	999.99994	-176.16582	1319.58175	-42.68285	-61.87415	940.38372	-264.19889	-66.10961	952.44917	-182.43914	38.12585	940.42064	-264.21249	-56.95662	925.80215	-363.00775	-61.91267	1039.31199	-278.79998	80.14712	78.07049	-144.45992	113.88152	75.76209	-129.93564	78.12618	1342.24399	-421.16403	44.67508	1448.30562	-690.01097	81.35738	44.12337	-78.78636	42.62540	939.43671	-270.89076	86.08714	951.82004	-213.82337	34.04769	462.21092	-161.03738	93.96806	468.05871	-166.48488	124.45919	255.57423	-135.68097	117.97430	245.25409	-86.69667	133.66778	280.12550	-104.15261	55.55124	1393.99985	-109.56576	118.91299	635.23273	-204.87266	112.35669	616.75929	-145.08864	126.01289	655.15539	-168.80384	115.45967	43.79068	-283.46568	17.35522	1430.77894	-622.30932	78.09921	1438.67299	-623.56296	47.72721	1434.72601	-622.93614	-1.51616	1426.96976	-619.07221	53.11781	1389.85061	-644.31687	54.51182	1414.08536	-577.90358	-1.28018	1413.44781	-694.27419	56.34953	1373.16133	-686.80354	47.82186	1430.52108	-646.34195	-4.89223	874.36232	-225.35237	115.78694	42.98713	-284.41454	113.61765	75.74088	-128.23638	82.68619	43.11338	-78.83461	28.39064	1433.80389	-625.87612	83.48979	1393.79753	-644.94371	78.10523	1417.16742	-578.42413	79.17471	78.05132	-143.84939	62.92670	1388.48500	-522.05008	-70.34451	965.50029	-94.00173	0.00000	-1.00000	-1.00000	0.00000	0.00000	-1.00000	0.00000	-1.00000	1.00000	0.00000	0.00000	1.00000	-166.37423	940.34510	-264.18466	42.62594	940.42226	-264.21309	-70.01258	964.51603	-100.67133	0.00000	0.00000	-0.00000	-246.67391	195.22079	-125.88807	125.93155	211.28012	-114.63619	-240.16095	580.70543	-148.78786	114.82332	583.66521	-181.26721	0.00000	999.99994	-0.00000
46	0.75000	-134.81512	1512.45975	-66.08922	13.53561	1519.61887	-76.63674	-65.58989	1381.74484	-56.04551	-60.23513	1543.38081	-133.76272	-66.09911	0.00000	-182.43627	-66.09911	0.00000	-282.43628	-128.93709	875.84964	-215.32353	4.72301	875.94683	-214.66791	-134.00585	1567.14275	-190.88871	-6.19251	1571.26918	-198.28062	-66.14253	1400.19683	-109.44080	-60.68709	1633.98010	-91.86798	-210.88163	1349.01185	-418.96472	-182.97786	1467.20227	-684.34429	-188.29283	1421.24464	-625.68535	78.07610	1342.35647	-421.15831	47.99005	1421.74602	-695.56320	47.67806	1434.80134	-622.94048	-120.37314	875.56431	-216.58761	-3.33854	875.60825	-216.58633	-185.60555	76.60268	-142.13437	-219.33604	72.36428	-129.17188	-210.88163	1349.01185	-418.96472	-184.29710	1440.61573	-692.16991	-185.18845	46.46855	-77.11808	-166.37440	939.36505	-270.85469	-214.14034	959.34685	-216.74501	-164.05407	461.15563	-145.61764	-223.71345	469.52029	-149.23238	-115.92353	969.73619	-94.76058	-239.83370	221.77607	-145.61553	-241.45563	222.50741	-96.25487	-248.05698	263.35036	-115.97842	-187.83808	1406.33653	-109.37877	-246.23637	609.37716	-188.13798	-240.08621	620.59061	-130.82454	-241.65287	648.51044	-167.05657	-210.74966	39.85572	-288.83043	-158.34547	1420.59519	-628.52770	-218.24017	1421.89398	-622.84311	0.00000	0.00000	-0.00000	999.99994	0.00000	-0.00000	0.00000	0.00000	-999.99994	0.00000	999.99994	-0.00000	-188.29283	1421.24464	-625.68535	-210.37601	40.84100	-288.84451	-221.10333	73.89576	-130.33266	-183.32119	47.93206	-76.00043	-138.62514	1417.07985	-621.71333	-185.68530	1468.29239	-608.96093	-193.42340	1404.83851	-578.73311	-133.11141	1464.35577	-682.05612	-182.15048	1506.51923	-653.46560	-186.53505	1436.44402	-645.08528	-210.60827	863.32587	-299.62553	-168.33709	1420.00815	-625.31841	-215.63260	1468.94173	-606.11868	-216.54184	1405.07297	-575.78821	-186.13163	78.66030	-141.72080	-199.58724	1385.12829	-522.32501	-61.87923	939.40423	-270.85358	-61.87923	0.00000	-270.85358	-66.09911	0.00000	-270.85358	-66.09911	100.00000	-270.85358	0.00000	0.00000	999.99994	-176.13005	1319.55728	-42.62652	-61.87967	940.38976	-264.17587	-66.09911	952.45069	-182.43627	38.12032	940.42727	-264.17479	-56.97895	925.80994	-362.98586	-61.91664	1039.31830	-278.77504	80.03984	78.08168	-144.40934	113.89980	75.76143	-129.92748	78.07610	1342.35647	-421.15831	44.64742	1448.37532	-690.02385	81.34160	44.09799	-78.74085	42.61594	939.44353	-270.85244	86.09024	951.81115	-213.86242	34.03753	462.22554	-160.98315	93.97635	468.07085	-166.45972	124.43964	255.57234	-135.66916	117.97389	245.25841	-86.67840	133.67346	280.11760	-104.15652	55.55302	1394.05713	-109.50281	118.90833	635.22916	-204.87934	112.36171	616.75471	-145.09297	126.02042	655.15891	-168.81657	115.44316	43.80392	-283.46533	17.30306	1430.85447	-622.29604	78.05306	1438.74821	-623.58485	47.67806	1434.80134	-622.94048	-1.56666	1427.05701	-619.06990	53.05638	1389.92035	-644.31257	54.46265	1414.16851	-577.90435	-1.31263	1413.52161	-694.29648	56.30874	1373.22700	-686.80522	47.77864	1430.59267	-646.35247	-4.90239	874.36903	-225.31490	115.80337	42.97891	-284.39507	113.61229	75.74797	-128.22045	82.67535	43.12431	-78.81957	28.34317	1433.89008	-625.89249	83.43143	1393.86723	-644.95701	78.05820	1417.25178	-578.44164	79.17156	78.05595	-143.83519	62.87708	1388.57896	-522.04942	-70.31901	965.49710	-94.01897	0.00000	-1.00000	-1.00000	0.00000	0.00000	-1.00000	0.00000	-1.00000	1.00000	0.00000	0.00000	1.00000	-166.37484	940.35047	-264.17701	42.61551	940.42900	-264.17477	-69.98821	964.51297	-100.68864	0.00000	0.00000	-0.00000	-246.66875	195.21787	-125.89917	125.93473	211.28853	-114.61111	-240.16670	580.70531	-148.78855	114.81713	583.66563	-181.27748	0.00000	999.99994	-0.00000
47	0.76667	-134.77777	1512.44124	-66.04953	13.57856	1519.58572	-76.59367	-65.57646	1381.71910	-56.00263	-60.20802	1543.35472	-133.71553	-66.08454	0.00000	-182.43469	-66.08454	0.00000	-282.43468	-128.92124	875.84539	-215.33268	4.73884	875.94289	-214.67464	-133.99460	1567.12374	-190.83737	-6.17394	1571.24762	-198.22340	-66.13090	1400.20393	-109.39925	-60.65137	1633.94718	-91.82202	-210.88413	1349.09446	-418.91907	-182.96657	1467.39789	-684.26186	-188.31356	1421.40122	-625.60311	78.06763	1342.43739	-421.15900	47.97014	1421.83228	-695.52718	47.64491	1434.89534	-622.88207	-120.35369	875.56261	-216.59306	-3.32116	875.60061	-216.60262	-185.55169	76.60864	-142.10322	-219.32309	72.35790	-129.19300	-210.88413	1349.09446	-418.91907	-184.28816	1440.80551	-692.10153	-185.20000	46.48229	-77.12262	-166.35588	939.36967	-270.84911	-214.11806	959.34615	-216.75321	-164.07760	461.15305	-145.50788	-223.71094	469.51118	-149.23390	-115.91773	969.72214	-94.75231	-239.82203	221.77030	-145.59449	-241.45413	222.51442	-96.26082	-248.06172	263.33887	-115.96270	-187.82047	1406.32942	-109.30006	-246.23521	609.37052	-188.10342	-240.08984	620.59328	-130.81695	-241.64773	648.50860	-167.04378	-210.75990	39.85568	-288.81395	-158.36236	1420.75174	-628.44897	-218.26475	1422.05077	-622.75725	0.00000	0.00000	-0.00000	999.99994	0.00000	-0.00000	0.00000	0.00000	-999.99994	0.00000	999.99994	-0.00000	-188.31356	1421.40122	-625.60311	-210.40441	40.85648	-288.86102	-221.08189	73.93491	-130.35076	-183.33424	47.92207	-76.01806	-138.64567	1417.23309	-621.63739	-185.70260	1468.44250	-608.86094	-193.44025	1404.97737	-578.65662	-133.10164	1464.53482	-681.96162	-182.13499	1506.70162	-653.36642	-186.54392	1436.62421	-645.01671	-210.59381	863.33502	-299.62565	-168.36204	1420.16432	-625.23928	-215.65380	1469.09198	-606.01505	-216.56121	1405.21158	-575.70898	-186.14893	78.65798	-141.73983	-199.59883	1385.24786	-522.26108	-61.86255	939.40353	-270.85764	-61.86255	0.00000	-270.85764	-66.08454	-0.00000	-270.85764	-66.08454	100.00000	-270.85764	0.00000	0.00000	999.99994	-176.10876	1319.52840	-42.57768	-61.86232	940.38836	-264.17984	-66.08454	952.44253	-182.43469	38.13766	940.42082	-264.18800	-56.95904	925.81758	-362.99105	-61.89561	1039.31830	-278.76983	80.17882	78.04728	-144.44510	113.88707	75.74900	-129.92307	78.06763	1342.43739	-421.15900	44.61694	1448.46922	-689.98782	81.32530	44.14252	-78.63048	42.63078	939.43745	-270.86615	86.11414	951.81948	-213.84201	34.05473	462.22092	-160.97849	93.98024	468.04834	-166.46809	124.46412	255.56791	-135.66042	117.99769	245.25221	-86.67263	133.67348	280.11067	-104.14540	55.55866	1394.07852	-109.49845	118.91803	635.21865	-204.87996	112.37174	616.76777	-145.08500	126.02725	655.15991	-168.79503	115.43930	43.80129	-283.47042	17.25415	1430.93863	-622.25253	78.03567	1438.85193	-623.51164	47.64491	1434.89534	-622.88207	-1.59657	1427.12823	-619.01575	53.04425	1390.02145	-644.26391	54.43636	1414.25533	-577.85016	-1.32885	1413.58507	-694.26488	56.31047	1373.31751	-686.76591	47.74983	1430.68120	-646.31697	-4.88888	874.36073	-225.33321	115.90701	42.96761	-284.37202	113.63423	75.76715	-128.20500	82.68628	43.14269	-78.81154	28.32805	1433.97458	-625.82767	83.43498	1393.97811	-644.89345	78.04280	1417.34506	-578.37348	79.20723	78.06348	-143.82006	62.85627	1388.66631	-522.02053	-70.30654	965.48150	-94.01178	0.00000	-1.00000	-1.00000	0.00000	0.00000	-1.00000	0.00000	-1.00000	1.00000	0.00000	0.00000	1.00000	-166.35565	940.35448	-264.17134	42.63101	940.42224	-264.18839	-69.97557	964.49798	-100.68153	0.00000	0.00000	-0.00000	-246.67759	195.21360	-125.89652	125.94985	211.27220	-114.61211	-240.16059	580.71009	-148.77344	114.83448	583.66497	-181.27377	0.00000	999.99994	-0.00000
48	0.78333	-134.75857	1512.44058	-66.00874	13.59642	1519.56872	-76.57118	-65.55482	1381.69801	-55.94855	-60.19466	1543.35066	-133.67531	-66.06419	0.00000	-182.41168	-66.06419	0.00000	-282.41167	-128.88634	875.82469	-215.31708	4.77371	875.92333	-214.65095	-133.98575	1567.13257	-190.77946	-6.16558	1571.23057	-198.21468	-66.11624	1400.22396	-109.33181	-60.61186	1633.93991	-91.78539	-210.86968	1349.18160	-418.86294	-182.94864	1467.56527	-684.15840	-188.30181	1421.54320	-625.51398	78.07941	1342.51462	-421.12964	47.93782	1421.96737	-695.48900	47.61046	1435.00710	-622.84114	-120.28484	875.56108	-216.55684	-3.27653	875.59802	-216.60870	-185.57137	76.59506	-142.09149	-219.31965	72.35219	-129.17650	-210.86968	1349.18160	-418.86294	-184.27526	1440.97447	-692.00917	-185.19977	46.48200	-77.11972	-166.29657	939.35490	-270.78664	-214.13069	959.33278	-216.86416	-164.10118	461.11581	-145.61550	-223.71224	469.51053	-149.22172	-115.92784	969.71175	-94.73702	-239.82174	221.75990	-145.59138	-241.46175	222.50329	-96.25492	-248.06162	263.33282	-115.95736	-187.79313	1406.34369	-109.20982	-246.23935	609.38008	-188.07514	-240.07697	620.59774	-130.78305	-241.63929	648.50395	-166.98262	-210.75418	39.85425	-288.81201	-158.35597	1420.89266	-628.37097	-218.24765	1422.19379	-622.65709	0.00000	0.00000	-0.00000	999.99994	0.00000	-0.00000	0.00000	0.00000	-999.99994	0.00000	999.99994	-0.00000	-188.30181	1421.54320	-625.51398	-210.37598	40.86756	-288.88764	-221.04896	73.98438	-130.38512	-183.36958	47.90744	-76.03576	-138.63438	1417.36509	-621.55294	-185.68143	1468.57892	-608.75769	-193.42821	1405.10589	-578.57219	-133.08413	1464.69212	-681.86145	-182.10863	1506.85646	-653.24738	-186.52989	1436.77658	-644.92540	-210.53422	863.31866	-299.55953	-168.34542	1420.29910	-625.14254	-215.62719	1469.22951	-605.90075	-216.54455	1405.33994	-575.61408	-186.16438	78.65099	-141.76310	-199.58574	1385.36240	-522.18849	-61.82485	939.38783	-270.83294	-61.82485	0.00000	-270.83294	-66.06419	0.00000	-270.83294	-66.06419	100.00000	-270.83294	0.00000	0.00000	999.99994	-176.09082	1319.51026	-42.52828	-61.82222	940.37272	-264.15518	-66.06419	952.42671	-182.41168	38.17777	940.40425	-264.19949	-56.89735	925.80194	-362.96529	-61.85988	1039.30256	-278.74547	80.09545	78.06405	-144.46281	113.90509	75.74292	-129.91101	78.07941	1342.51462	-421.12964	44.58057	1448.60161	-689.94128	81.31408	44.11477	-78.59420	42.64685	939.42077	-270.87927	86.13126	951.79628	-213.82097	34.11989	462.18066	-160.99088	93.98594	468.03840	-166.47199	124.45510	255.56144	-135.67521	118.00558	245.23448	-86.67713	133.69119	280.09916	-104.15555	55.56065	1394.10419	-109.45380	118.93717	635.21478	-204.84741	112.39620	616.75186	-145.08260	126.03920	655.14674	-168.76424	115.45172	43.79504	-283.47392	17.22990	1431.04992	-622.22777	77.99101	1438.96445	-623.45454	47.61046	1435.00710	-622.84114	-1.62820	1427.22321	-618.97277	53.02288	1390.13936	-644.23236	54.41192	1414.36042	-577.81391	-1.35840	1413.70346	-694.22783	56.29444	1373.45265	-686.74326	47.71606	1430.80078	-646.27599	-4.86715	874.34265	-225.34244	116.04735	42.94930	-284.35880	113.66641	75.78723	-128.20146	82.70701	43.15893	-78.81770	28.28484	1434.07021	-625.76589	83.40353	1394.09661	-644.84572	78.01073	1417.44884	-578.32058	79.26063	78.06723	-143.81766	62.84493	1388.76094	-521.98540	-70.30352	965.46558	-93.99038	0.00000	-1.00000	-1.00000	0.00000	0.00000	-1.00000	0.00000	-1.00000	1.00000	0.00000	0.00000	1.00000	-166.29391	940.33973	-264.10888	42.64950	940.40565	-264.20148	-69.97109	964.48204	-100.66006	0.00000	0.00000	-0.00000	-246.66790	195.20638	-125.86816	125.94333	211.25572	-114.61813	-240.16112	580.69410	-148.73815	114.84816	583.66540	-181.26517	0.00000	999.99994	-0.00000
